<svg width="628" height="428" viewBox="0 0 628 428" fill="none" xmlns="http://www.w3.org/2000/svg"><path fill="#fff" d="M0 0h628v428H0z"/><path opacity=".5" d="M147.1 266.222L25.97 336.153a1.015 1.015 0 000 1.743l123.768 71.449a2.574 2.574 0 002.605 0l123.743-71.408a1.005 1.005 0 000-1.742l-121.129-69.932a7.812 7.812 0 00-7.857-.041z" fill="#E5D4FF"/><path d="M149.589 212.975L9.17 294.098a1.296 1.296 0 000 2.249l140.726 81.355a2.604 2.604 0 002.605 0l140.411-81.123a1.31 1.31 0 000-2.257l-140.718-81.347a2.6 2.6 0 00-2.605 0z" fill="url(#prefix__paint0_linear)"/><path opacity=".95" fill-rule="evenodd" clip-rule="evenodd" d="M152.924 287.42l-17.646 2.729 12.826 7.409 17.597-2.763-12.777-7.375zm19.414-3.775l-12.984-7.467-4.721 10.171 12.985 7.467 4.72-10.171zm-57.652 9.657l12.826 7.4 17.622-2.721-12.777-7.417-17.671 2.738zm53.263 2.787l-17.671 2.738 12.826 7.401 17.614-2.721-12.769-7.418z" fill="#fff"/><path d="M9.78 153l.98-2.59h4.02l.994 2.59h1.882l-4.035-10.541h-1.687l-4.036 10.526 1.883.015zm1.431-4.096l1.566-4.382 1.551 4.382h-3.117zm7.732 7.108h1.521v-4.081c.407.557 1.175 1.144 2.44 1.144 1.671 0 3.403-1.325 3.403-3.885 0-2.605-1.867-3.885-3.449-3.885-1.325 0-2.183.798-2.394 1.205v-1.039h-1.52v10.541zm3.614-4.397c-1.22 0-2.078-1.024-2.078-2.47 0-1.37.858-2.349 2.078-2.349 1.205 0 2.048 1.039 2.048 2.5 0 1.355-.843 2.319-2.048 2.319zm5.18 4.397h1.52v-4.081c.407.557 1.175 1.144 2.44 1.144 1.672 0 3.403-1.325 3.403-3.885 0-2.605-1.867-3.885-3.448-3.885-1.325 0-2.183.798-2.394 1.205v-1.039h-1.521v10.541zm3.614-4.397c-1.22 0-2.078-1.024-2.078-2.47 0-1.37.858-2.349 2.078-2.349 1.205 0 2.048 1.039 2.048 2.5 0 1.355-.843 2.319-2.048 2.319zm5.18 1.385h1.686v-10.541h-1.686V153zm3.571-8.613h1.792v-1.928h-1.792v1.928zm.06 8.613h1.687v-7.529h-1.686V153zm6.705.105c1.762 0 3.163-1.129 3.373-2.74h-1.686c-.136.677-.693 1.325-1.656 1.325-1.085 0-1.943-.949-1.943-2.56 0-1.536.858-2.439 1.912-2.439.95 0 1.521.647 1.687 1.325h1.686c-.195-1.581-1.566-2.696-3.312-2.696-2.154 0-3.674 1.627-3.674 3.915 0 2.274 1.49 3.87 3.613 3.87zm6.843.046c.798 0 1.686-.347 2.228-1.039V153h1.672v-5.09c0-1.49-1.07-2.62-2.982-2.62-1.837 0-3.056 1.19-3.192 2.696l1.687-.015c.075-.558.527-1.22 1.58-1.22.769 0 1.235.421 1.235.903 0 .783-1.069.844-2.032.934-.859.075-1.582.286-2.078.678-.467.376-.663.963-.663 1.611 0 1.445 1.205 2.274 2.545 2.274zm.27-1.386c-.692-.045-1.083-.467-1.083-.994 0-.587.482-.903 1.31-.978.737-.061 1.415-.166 1.746-.347l-.015.678c-.03 1.189-1.129 1.686-1.957 1.641zM61.52 153h1.43l.016-1.415h-1.024c-.723 0-.919-.241-.919-.994v-3.765h1.928v-1.355h-1.928v-2.409h-1.566v2.409h-1.174v1.355h1.174v4.171c0 1.175.859 2.003 2.063 2.003zm2.493-8.613h1.792v-1.928h-1.792v1.928zm.06 8.613h1.687v-7.529h-1.687V153zm6.735.075c2.033 0 3.63-1.596 3.63-3.84 0-2.273-1.597-3.87-3.63-3.87-2.048 0-3.644 1.597-3.644 3.87 0 2.244 1.596 3.84 3.644 3.84zm-.015-1.49c-1.295 0-2.018-1.024-2.018-2.35 0-1.355.738-2.364 2.033-2.364 1.31 0 2.048 1.024 2.048 2.38 0 1.325-.738 2.334-2.063 2.334zM75.867 153h1.597v-3.795c0-1.551.888-2.499 1.882-2.499.843 0 1.49.527 1.49 1.852V153h1.732v-4.623c0-2.545-1.807-3.102-2.846-3.102a2.78 2.78 0 00-2.258 1.145v-.949h-1.597V153zm11.224.166c1.4 0 2.936-.874 2.936-2.44 0-1.159-.693-2.003-3.042-2.289-.933-.12-1.28-.497-1.28-.903 0-.557.633-.798 1.22-.798.422 0 1.28.135 1.446 1.159h1.49c-.15-1.867-1.596-2.56-2.966-2.56-1.732 0-2.816 1.039-2.816 2.184 0 .753.27 1.867 2.891 2.243 1.145.166 1.385.558 1.385.964 0 .618-.527 1.084-1.325 1.084-.798 0-1.475-.436-1.641-1.219h-1.536c.09 1.716 1.536 2.575 3.238 2.575z" fill="#000"/><path d="M48.113 236.514c20.193 0 36.563-16.37 36.563-36.563s-16.37-36.563-36.563-36.563-36.563 16.37-36.563 36.563 16.37 36.563 36.563 36.563z" fill="#1D1E1F" stroke="#F2F2F3" stroke-width=".83" stroke-miterlimit="10"/><path d="M59.704 212.155v-2.895a5.807 5.807 0 00-5.807-5.808H42.282a5.808 5.808 0 00-5.808 5.808v2.895M48.114 197.669a5.808 5.808 0 10.001-11.616 5.808 5.808 0 00-.002 11.616v0z" stroke="#fff" stroke-width="2.091" stroke-linecap="round" stroke-linejoin="round"/><path d="M69.526 244.213c8 0 14.486-6.486 14.486-14.486s-6.485-14.486-14.486-14.486c-8 0-14.485 6.486-14.485 14.486s6.485 14.486 14.486 14.486z" fill="#00CA8E"/><path d="M65.603 232.863a.551.551 0 01-.386-.139l-3.354-2.777a.601.601 0 010-.92l3.338-2.785a.612.612 0 01.82.082.592.592 0 01-.074.821l-2.813 2.325 2.813 2.342a.593.593 0 01-.369 1.051h.025zM73.458 233.044a.587.587 0 01-.459-.214.573.573 0 01.074-.822l2.796-2.341-2.813-2.374a.583.583 0 01-.185-.623.573.573 0 01.112-.199.625.625 0 01.459-.214.585.585 0 01.385.14l3.362 2.777a.63.63 0 01.214.46.604.604 0 01-.214.46l-3.345 2.785a.724.724 0 01-.386.165zM67.784 235.213a.709.709 0 01-.172 0 .591.591 0 01-.41-.505.586.586 0 01.024-.227l3.28-10.285a.57.57 0 01.558-.419.681.681 0 01.18 0 .56.56 0 01.39.513.506.506 0 01-.045.21l-3.223 10.294a.593.593 0 01-.582.419z" fill="#fff"/><path opacity=".5" d="M502.262 180.677L325.67 282.816a.62.62 0 00-.228.85.623.623 0 00.228.228l76.884 44.387a1.62 1.62 0 001.66 0l178.176-103.11a.617.617 0 000-1.078l-75.249-43.416a4.842 4.842 0 00-4.879 0z" fill="#E5D4FF"/><path d="M509.596 149.98L320.75 258.988a1.311 1.311 0 000 2.256l81.074 46.801a2.601 2.601 0 002.605 0L593.275 199.02a1.312 1.312 0 000-2.256l-81.074-46.784a2.6 2.6 0 00-2.605 0z" fill="url(#prefix__paint1_linear)"/><path d="M593.921 197.892a1.29 1.29 0 01-.647 1.128L404.428 308.045a2.62 2.62 0 01-1.302.349v6.944a2.62 2.62 0 001.302-.349l188.846-109.024a1.309 1.309 0 00.647-1.129v-6.944z" fill="url(#prefix__paint2_linear)"/><path d="M401.823 307.671l-81.074-46.8a1.292 1.292 0 01-.647-1.129v6.944a1.309 1.309 0 00.647 1.129l81.074 46.8c.395.23.845.35 1.302.349v-6.944a2.577 2.577 0 01-1.302-.349z" fill="url(#prefix__paint3_linear)"/><path d="M411.962 285.561l-8.047-4.646 8.047-4.638 8.04 4.638-8.04 4.646zM402.711 290.904l-8.039-4.646 8.039-4.646 8.048 4.646-8.048 4.646zM402.711 280.226l-8.039-4.646 8.039-4.646 8.04 4.646-8.04 4.646zM393.469 285.561l-8.048-4.646 8.048-4.638 8.039 4.638-8.039 4.646z" fill="#000"/><path opacity=".9" d="M568.892 196.656l-20.874-12.055a2.247 2.247 0 00-2.24 0l-20.874 12.055a1.088 1.088 0 00-.399 1.485c.096.166.233.303.399.398l20.874 12.047a2.204 2.204 0 002.24 0l20.874-12.047c.165-.095.303-.232.398-.398a1.078 1.078 0 000-1.087 1.085 1.085 0 00-.398-.398z" fill="url(#prefix__paint4_linear)"/><path d="M438.202 198.345l-20.361 11.773a1.268 1.268 0 00-.639 1.105 1.276 1.276 0 00.639 1.105l20.361 11.756a2.572 2.572 0 002.551 0l20.369-11.748a1.28 1.28 0 00.462-1.742 1.28 1.28 0 00-.462-.468l-20.369-11.781a2.535 2.535 0 00-2.551 0z" fill="url(#prefix__paint5_linear)"/><path d="M439.039 214.324a.728.728 0 01-.361.099l-4.314.23a.881.881 0 01-.475-.099.276.276 0 01-.172-.279l.377-2.465a.317.317 0 01.172-.205.972.972 0 01.476-.107c.14.002.277.045.393.123a.246.246 0 01.132.247l-.329 2.087 3.617-.181c.32 0 .607.115.656.296a.29.29 0 01-.172.254zM444.68 211.202a.862.862 0 01-.476.107c-.32 0-.55-.181-.525-.37l.312-2.086-3.625.18c-.328 0-.607-.115-.631-.304-.025-.189.049-.197.172-.271a.815.815 0 01.361-.098l4.33-.239a.83.83 0 01.467.107.296.296 0 01.18.271l-.393 2.465a.387.387 0 01-.172.238zM442.539 214.776a.521.521 0 01-.139.066 1.004 1.004 0 01-.443 0 .636.636 0 01-.344-.173l-5.47-6.038c-.123-.132-.09-.288.098-.394a.368.368 0 01.14-.066.93.93 0 01.451 0 .45.45 0 01.311.164l5.495 6.039c.123.139.082.295-.099.402z" fill="#fff"/><path d="M461.752 211.227a1.272 1.272 0 01-.631 1.109l-20.37 11.748c-.388.22-.825.336-1.271.337v6.811a2.608 2.608 0 001.271-.337l20.37-11.74a1.28 1.28 0 00.631-1.109v-6.819z" fill="url(#prefix__paint6_linear)"/><path d="M438.201 224.084l-20.361-11.748a1.264 1.264 0 01-.64-1.109v6.811a1.276 1.276 0 00.64 1.109l20.361 11.781c.391.22.831.336 1.279.337v-6.811a2.611 2.611 0 01-1.279-.37z" fill="url(#prefix__paint7_linear)"/><path opacity=".9" d="M496.532 196.352l-20.874-12.047a2.204 2.204 0 00-2.24 0l-20.874 12.047a1.082 1.082 0 00-.398 1.485c.095.166.233.303.398.398l20.874 12.055a2.247 2.247 0 002.24 0l20.874-12.055a1.08 1.08 0 00.545-.941 1.092 1.092 0 00-.545-.942z" fill="url(#prefix__paint8_linear)"/><path opacity=".9" d="M532.532 217.352l-20.874-12.047a2.204 2.204 0 00-2.24 0l-20.874 12.047a1.082 1.082 0 00-.398 1.485c.095.166.233.303.398.398l20.874 12.055a2.247 2.247 0 002.24 0l20.874-12.055a1.08 1.08 0 00.545-.941 1.092 1.092 0 00-.545-.942z" fill="url(#prefix__paint9_linear)"/><path d="M509.002 188.339l-20.369 11.781a1.272 1.272 0 00-.631 1.105 1.28 1.28 0 00.631 1.105l20.369 11.781a2.528 2.528 0 002.551 0l20.361-11.781a1.278 1.278 0 00.468-1.744 1.268 1.268 0 00-.468-.466l-20.361-11.781a2.573 2.573 0 00-2.551 0z" fill="url(#prefix__paint10_linear)"/><path d="M509.838 204.326a.807.807 0 01-.369.099l-4.313.222a.821.821 0 01-.468-.099.289.289 0 01-.18-.271l.377-2.465a.322.322 0 01.181-.213.931.931 0 01.467-.099.82.82 0 01.394.115.269.269 0 01.108.106.275.275 0 01.031.149l-.336 2.087 3.624-.189c.32 0 .599.115.656.304a.292.292 0 01-.172.254zM515.472 201.204a.821.821 0 01-.468.099c-.328 0-.557-.173-.533-.37l.32-2.087-3.625.189c-.328 0-.606-.123-.639-.304a.317.317 0 01.18-.279.815.815 0 01.361-.098l4.322-.23a.872.872 0 01.475.098c.123.074.189.173.172.271l-.385 2.465a.381.381 0 01-.18.246zM513.332 204.778a.649.649 0 01-.139.058.968.968 0 01-.435 0 .59.59 0 01-.344-.165l-5.47-6.038c-.131-.132-.09-.296.09-.403l.14-.065a.963.963 0 01.459 0 .56.56 0 01.311.164l5.486 6.038c.123.148.091.304-.098.411z" fill="#fff"/><path d="M532.552 201.229a1.255 1.255 0 01-.639 1.101l-20.362 11.781a2.54 2.54 0 01-1.279.345v6.811c.45 0 .891-.119 1.279-.345l20.362-11.781a1.278 1.278 0 00.639-1.101v-6.811z" fill="url(#prefix__paint11_linear)"/><path d="M509.001 214.111l-20.37-11.781a1.274 1.274 0 01-.631-1.101v6.778a1.262 1.262 0 00.631 1.101l20.37 11.781c.386.225.824.344 1.271.345v-6.811a2.529 2.529 0 01-1.271-.312z" fill="url(#prefix__paint12_linear)"/><path d="M532.479 208.08a1.256 1.256 0 01-.64 1.101l-20.296 11.74a2.501 2.501 0 01-1.271.345v10.96c.447.005.886-.111 1.271-.337l20.296-11.74a1.283 1.283 0 00.64-1.101V208.08z" fill="url(#prefix__paint13_linear)"/><path d="M509.001 220.921l-20.296-11.74a1.243 1.243 0 01-.631-1.101v10.968a1.273 1.273 0 00.631 1.101l20.296 11.74c.387.223.825.339 1.271.337v-10.96a2.534 2.534 0 01-1.271-.345z" fill="url(#prefix__paint14_linear)"/><path opacity=".9" d="M496.532 238.352l-20.874-12.047a2.204 2.204 0 00-2.24 0l-20.874 12.047a1.082 1.082 0 00-.398 1.485c.095.166.233.303.398.398l20.874 12.055a2.247 2.247 0 002.24 0l20.874-12.055a1.08 1.08 0 00.545-.941 1.092 1.092 0 00-.545-.942z" fill="url(#prefix__paint15_linear)"/><path opacity=".9" d="M461.532 259.352l-20.874-12.047a2.204 2.204 0 00-2.24 0l-20.874 12.047a1.082 1.082 0 00-.398 1.485c.095.166.233.303.398.398l20.874 12.055a2.247 2.247 0 002.24 0l20.874-12.055a1.08 1.08 0 00.545-.941 1.092 1.092 0 00-.545-.942z" fill="url(#prefix__paint16_linear)"/><path opacity=".9" d="M532.532 175.352l-20.874-12.047a2.204 2.204 0 00-2.24 0l-20.874 12.047a1.082 1.082 0 00-.398 1.485c.095.166.233.303.398.398l20.874 12.055a2.247 2.247 0 002.24 0l20.874-12.055a1.08 1.08 0 00.545-.941 1.092 1.092 0 00-.545-.942z" fill="url(#prefix__paint17_linear)"/><path opacity=".9" d="M426.679 237.939l-20.874-12.055a2.247 2.247 0 00-2.24 0l-20.874 12.055a1.082 1.082 0 00-.398 1.485c.095.166.233.303.398.398l20.874 12.047a2.204 2.204 0 002.24 0l20.874-12.047a1.08 1.08 0 00.544-.941 1.091 1.091 0 00-.544-.942z" fill="url(#prefix__paint18_linear)"/><path opacity=".9" d="M389.532 259.345l-20.874-12.046a2.262 2.262 0 00-2.248 0l-20.866 12.046a1.093 1.093 0 00-.544.942 1.085 1.085 0 00.544.942l20.866 12.063a2.271 2.271 0 002.248 0l20.874-12.055a1.082 1.082 0 00.552-.946 1.085 1.085 0 00-.552-.946z" fill="url(#prefix__paint19_linear)"/><path d="M366.002 230.339l-20.369 11.781a1.272 1.272 0 00-.631 1.105 1.28 1.28 0 00.631 1.105l20.369 11.781a2.528 2.528 0 002.551 0l20.361-11.781a1.278 1.278 0 00.468-1.744 1.268 1.268 0 00-.468-.466l-20.361-11.781a2.573 2.573 0 00-2.551 0z" fill="url(#prefix__paint20_linear)"/><path d="M366.838 246.326a.807.807 0 01-.369.099l-4.313.222a.821.821 0 01-.468-.099.289.289 0 01-.18-.271l.377-2.465a.322.322 0 01.181-.213.931.931 0 01.467-.099.82.82 0 01.394.115.269.269 0 01.108.106.275.275 0 01.031.149l-.336 2.087 3.624-.189c.32 0 .599.115.656.304a.292.292 0 01-.172.254zM372.472 243.204a.821.821 0 01-.468.099c-.328 0-.557-.173-.533-.37l.32-2.087-3.625.189c-.328 0-.606-.123-.639-.304a.317.317 0 01.18-.279.815.815 0 01.361-.098l4.322-.23a.872.872 0 01.475.098c.123.074.189.173.172.271l-.385 2.465a.381.381 0 01-.18.246zM370.332 246.778a.649.649 0 01-.139.058.968.968 0 01-.435 0 .59.59 0 01-.344-.165l-5.47-6.038c-.131-.132-.09-.296.09-.403l.14-.065a.963.963 0 01.459 0 .56.56 0 01.311.164l5.486 6.038c.123.148.091.304-.098.411z" fill="#fff"/><path d="M389.552 243.229a1.255 1.255 0 01-.639 1.101l-20.362 11.781a2.54 2.54 0 01-1.279.345v6.811c.45 0 .891-.119 1.279-.345l20.362-11.781a1.278 1.278 0 00.639-1.101v-6.811z" fill="url(#prefix__paint21_linear)"/><path d="M366.001 256.111l-20.37-11.781a1.274 1.274 0 01-.631-1.101v6.778a1.262 1.262 0 00.631 1.101l20.37 11.781c.386.225.824.344 1.271.345v-6.811a2.529 2.529 0 01-1.271-.312z" fill="url(#prefix__paint22_linear)"/><path d="M389.479 250.08a1.256 1.256 0 01-.64 1.101l-20.296 11.74a2.501 2.501 0 01-1.271.345v10.96c.447.005.886-.111 1.271-.337l20.296-11.74a1.283 1.283 0 00.64-1.101V250.08z" fill="url(#prefix__paint23_linear)"/><path d="M366.001 262.921l-20.296-11.74a1.243 1.243 0 01-.631-1.101v10.968a1.273 1.273 0 00.631 1.101l20.296 11.74c.387.223.825.339 1.271.337v-10.96a2.534 2.534 0 01-1.271-.345z" fill="url(#prefix__paint24_linear)"/><path opacity=".5" d="M400.96 121.937l-68.944 39.823a.571.571 0 000 .987l70.438 40.653a1.48 1.48 0 001.485 0l70.437-40.653a.567.567 0 00.207-.778.576.576 0 00-.207-.209l-68.944-39.823a4.476 4.476 0 00-4.472 0z" fill="#E5D4FF"/><path d="M401.899 87.979l-81.074 46.801a1.3 1.3 0 00-.652 1.128 1.308 1.308 0 00.652 1.128l81.074 46.809a2.595 2.595 0 002.597 0l81.073-46.809a1.288 1.288 0 00.478-1.774 1.286 1.286 0 00-.478-.474l-81.073-46.809a2.6 2.6 0 00-2.597 0z" fill="url(#prefix__paint25_linear)"/><path d="M486.199 135.908a1.282 1.282 0 01-.647 1.128l-81.073 46.809c-.396.23-.846.35-1.303.349v6.936c.457.001.907-.119 1.303-.349l81.073-46.801a1.294 1.294 0 00.647-1.128v-6.944z" fill="url(#prefix__paint26_linear)"/><path d="M401.899 183.845l-81.074-46.809a1.284 1.284 0 01-.647-1.128v6.944a1.298 1.298 0 00.647 1.128l81.074 46.801c.393.229.84.349 1.294.349v-6.936c-.454 0-.901-.12-1.294-.349z" fill="url(#prefix__paint27_linear)"/><path d="M411.349 160.831l4.978-2.887c2.895-1.659 3.576-4.19 1.659-6.256-1.916-2.066-5.907-3.186-9.889-2.746a20.627 20.627 0 00-7.094-.962v3.285c2.014-.158 4.03.268 5.808 1.228l.497.29c3.319-1.924 8.297.963 4.978 2.888l-4.978 2.895 4.041 2.265z" fill="#000"/><path d="M401.143 151.207l-.042-3.228c-4.388.158-8.296 1.66-10.412 3.85-2.115 2.19-2.016 4.978.183 7.152a5.23 5.23 0 012.489-2.796c.461-.249.941-.463 1.435-.639-.224-2.182 2.539-4.09 6.297-4.314l.05-.025zM406.346 163.71l4.978-2.887-3.941-2.299-4.978 2.888a4.372 4.372 0 01-1.253.456v3.319a12.463 12.463 0 005.227-1.51l-.033.033z" fill="#000"/><path d="M393.361 156.243c-2.754 1.618-3.443 4.065-1.659 6.098 1.783 2.032 5.534 3.194 9.425 2.904v-3.319c-2.315.506-4.779-.481-4.779-1.908s2.489-2.415 4.779-1.908v-3.319a13.884 13.884 0 00-7.766 1.452z" fill="#000"/><path opacity=".9" d="M417.023 135.502l20.874 12.055a2.256 2.256 0 002.24 0l20.874-12.055c.166-.096.303-.233.399-.398a1.094 1.094 0 000-1.088 1.096 1.096 0 00-.399-.398l-20.874-12.055a2.256 2.256 0 00-2.24 0l-20.874 12.055a1.093 1.093 0 00-.544.942 1.085 1.085 0 00.544.942z" fill="url(#prefix__paint28_linear)"/><path opacity=".9" d="M345.382 135.958l20.874 12.055a2.248 2.248 0 002.241 0l20.874-12.055a1.093 1.093 0 00.544-.942 1.09 1.09 0 00-.544-.941l-20.874-12.047a2.21 2.21 0 00-2.241 0l-20.874 12.047a1.09 1.09 0 00-.544.941 1.092 1.092 0 00.544.942z" fill="url(#prefix__paint29_linear)"/><path opacity=".9" d="M380.544 114.235l20.874 12.055a2.247 2.247 0 002.24 0l20.874-12.055a1.08 1.08 0 00.545-.941 1.092 1.092 0 00-.545-.942l-20.874-12.047a2.204 2.204 0 00-2.24 0l-20.874 12.047a1.082 1.082 0 00-.398 1.485c.095.166.233.303.398.398z" fill="url(#prefix__paint30_linear)"/><path d="M401.002 83.338L380.633 95.12a1.276 1.276 0 00-.631 1.105 1.28 1.28 0 00.631 1.105l20.369 11.781a2.528 2.528 0 002.551 0l20.361-11.781a1.273 1.273 0 000-2.21l-20.361-11.782a2.574 2.574 0 00-2.551 0z" fill="url(#prefix__paint31_linear)"/><path d="M401.838 99.326a.817.817 0 01-.369.099l-4.313.222a.822.822 0 01-.468-.099.285.285 0 01-.18-.271l.377-2.465a.325.325 0 01.181-.213.93.93 0 01.467-.099.822.822 0 01.394.115.268.268 0 01.108.106.273.273 0 01.031.149l-.336 2.087 3.624-.19c.32 0 .599.116.656.305a.293.293 0 01-.172.254zM407.472 96.204a.821.821 0 01-.468.099c-.328 0-.557-.173-.533-.37l.32-2.087-3.625.19c-.328 0-.606-.124-.639-.305a.319.319 0 01.18-.28.821.821 0 01.361-.097l4.322-.23a.883.883 0 01.475.098c.123.074.189.173.172.271l-.385 2.465a.392.392 0 01-.18.246zM405.332 99.778a.609.609 0 01-.139.058.96.96 0 01-.435 0 .587.587 0 01-.344-.165l-5.47-6.038c-.131-.132-.09-.296.09-.403l.14-.066a.965.965 0 01.459 0c.118.02.228.078.311.165l5.486 6.038c.123.148.091.304-.098.411z" fill="#fff"/><path d="M424.552 96.229a1.252 1.252 0 01-.639 1.1l-20.362 11.782a2.54 2.54 0 01-1.279.345v6.811c.45 0 .891-.119 1.279-.345l20.362-11.781a1.278 1.278 0 00.639-1.101v-6.811z" fill="url(#prefix__paint32_linear)"/><path d="M401.001 109.111l-20.37-11.781a1.274 1.274 0 01-.631-1.101v6.778a1.262 1.262 0 00.631 1.101l20.37 11.781c.386.225.824.344 1.271.345v-6.811a2.529 2.529 0 01-1.271-.312z" fill="url(#prefix__paint33_linear)"/><path d="M424.479 103.08a1.256 1.256 0 01-.64 1.101l-20.296 11.74a2.501 2.501 0 01-1.271.345v10.96c.447.005.886-.111 1.271-.337l20.296-11.74a1.283 1.283 0 00.64-1.101V103.08z" fill="url(#prefix__paint34_linear)"/><path d="M401.001 115.921l-20.296-11.74a1.243 1.243 0 01-.631-1.101v10.968a1.273 1.273 0 00.631 1.101l20.296 11.74c.387.223.825.339 1.271.337v-10.96a2.534 2.534 0 01-1.271-.345z" fill="url(#prefix__paint35_linear)"/><path opacity=".5" d="M196.492 117.847L373.076 220.01a.623.623 0 010 1.079l-76.867 44.386a1.66 1.66 0 01-1.66 0L116.356 162.366a.623.623 0 010-1.079l75.258-43.44a4.882 4.882 0 014.878 0z" fill="#E5D4FF"/><path d="M189.491 88.162l188.331 108.842a1.314 1.314 0 01.472 1.778 1.314 1.314 0 01-.472.479l-81.074 46.809a2.61 2.61 0 01-2.605 0L105.812 137.227a1.296 1.296 0 01-.652-1.128 1.3 1.3 0 01.652-1.128l81.065-46.81a2.606 2.606 0 012.614 0z" fill="url(#prefix__paint36_linear)"/><path d="M105.165 136.099a1.286 1.286 0 00.656 1.128l188.331 108.842a2.62 2.62 0 001.302.349v6.936a2.62 2.62 0 01-1.302-.349L105.821 144.171a1.297 1.297 0 01-.656-1.128v-6.944z" fill="url(#prefix__paint37_linear)"/><path d="M296.748 246.069l81.074-46.809a1.29 1.29 0 00.647-1.128v6.944a1.309 1.309 0 01-.647 1.129l-81.074 46.8c-.395.23-.845.35-1.302.349v-6.936c.457.001.907-.119 1.302-.349z" fill="url(#prefix__paint38_linear)"/><path d="M186.002 94.345l-20.361 11.773a1.268 1.268 0 00-.639 1.105 1.276 1.276 0 00.639 1.105l20.361 11.756a2.572 2.572 0 002.551 0l20.369-11.748a1.28 1.28 0 00.462-1.742 1.28 1.28 0 00-.462-.468l-20.369-11.781a2.535 2.535 0 00-2.551 0z" fill="url(#prefix__paint39_linear)"/><path d="M186.839 110.324a.728.728 0 01-.361.099l-4.314.23a.881.881 0 01-.475-.099.276.276 0 01-.172-.279l.377-2.465a.317.317 0 01.172-.205.972.972 0 01.476-.107c.14.002.277.045.393.123a.246.246 0 01.132.247l-.329 2.087 3.617-.181c.32 0 .607.115.656.296a.29.29 0 01-.172.254zM192.479 107.202a.857.857 0 01-.475.107c-.32 0-.55-.181-.525-.37l.312-2.086-3.625.18c-.328 0-.607-.115-.631-.304-.025-.189.049-.197.172-.271a.812.812 0 01.361-.098l4.33-.239a.83.83 0 01.467.107.296.296 0 01.18.271l-.393 2.465a.385.385 0 01-.173.238zM190.339 110.776a.521.521 0 01-.139.066 1.004 1.004 0 01-.443 0 .636.636 0 01-.344-.173l-5.47-6.038c-.123-.132-.09-.288.098-.394a.368.368 0 01.14-.066.93.93 0 01.451 0 .45.45 0 01.311.164l5.495 6.039c.123.139.082.295-.099.402z" fill="#fff"/><path d="M209.552 107.227a1.272 1.272 0 01-.631 1.109l-20.37 11.748c-.388.22-.825.336-1.271.337v6.811a2.608 2.608 0 001.271-.337l20.37-11.74a1.28 1.28 0 00.631-1.109v-6.819z" fill="url(#prefix__paint40_linear)"/><path d="M186.001 120.084l-20.361-11.748a1.264 1.264 0 01-.64-1.109v6.811a1.276 1.276 0 00.64 1.109l20.361 11.781c.391.22.831.336 1.279.337v-6.811a2.611 2.611 0 01-1.279-.37z" fill="url(#prefix__paint41_linear)"/><path opacity=".9" d="M129.53 136.22l20.874 12.047a2.204 2.204 0 002.24 0l20.874-12.047a1.085 1.085 0 000-1.883l-20.874-12.038a2.247 2.247 0 00-2.24 0l-20.874 12.055a1.083 1.083 0 00-.388 1.47c.093.163.226.3.388.396z" fill="url(#prefix__paint42_linear)"/><path opacity=".9" d="M317.142 176.022l-20.866-12.047a2.221 2.221 0 00-2.248 0l-20.874 12.047a1.082 1.082 0 00-.398 1.485c.095.166.232.303.398.398l20.874 12.055a2.247 2.247 0 002.24 0l20.874-12.055a1.081 1.081 0 00.398-1.485 1.07 1.07 0 00-.398-.398z" fill="url(#prefix__paint43_linear)"/><path opacity=".9" d="M209.353 155.007l-20.874-12.038a2.247 2.247 0 00-2.24 0l-20.874 12.054a1.096 1.096 0 00-.399.398 1.094 1.094 0 000 1.088c.096.165.233.302.399.398l20.874 12.055a2.256 2.256 0 002.24 0l20.874-12.055a1.088 1.088 0 000-1.9z" fill="url(#prefix__paint44_linear)"/><path opacity=".9" d="M244.532 134.337l-20.874-12.038a2.247 2.247 0 00-2.24 0l-20.874 12.055a1.078 1.078 0 00-.398.398 1.078 1.078 0 000 1.087c.095.165.233.303.398.398l20.874 12.055a2.247 2.247 0 002.24 0l20.874-12.055a1.08 1.08 0 00.559-.95 1.088 1.088 0 00-.559-.95z" fill="url(#prefix__paint45_linear)"/><path opacity=".9" d="M280.532 155.337l-20.874-12.038a2.247 2.247 0 00-2.24 0l-20.874 12.055a1.078 1.078 0 00-.398.398 1.078 1.078 0 000 1.087c.095.165.233.303.398.398l20.874 12.055a2.247 2.247 0 002.24 0l20.874-12.055a1.08 1.08 0 00.559-.95 1.088 1.088 0 00-.559-.95z" fill="url(#prefix__paint46_linear)"/><path opacity=".9" d="M245.532 175.337l-20.874-12.038a2.247 2.247 0 00-2.24 0l-20.874 12.055a1.078 1.078 0 00-.398.398 1.078 1.078 0 000 1.087c.095.165.233.303.398.398l20.874 12.055a2.247 2.247 0 002.24 0l20.874-12.055a1.08 1.08 0 00.559-.95 1.088 1.088 0 00-.559-.95z" fill="url(#prefix__paint47_linear)"/><path d="M222.002 145.339l-20.369 11.781a1.272 1.272 0 00-.631 1.105 1.28 1.28 0 00.631 1.105l20.369 11.781a2.528 2.528 0 002.551 0l20.361-11.781a1.278 1.278 0 00.468-1.744 1.268 1.268 0 00-.468-.466l-20.361-11.781a2.573 2.573 0 00-2.551 0z" fill="url(#prefix__paint48_linear)"/><path d="M222.838 161.326a.807.807 0 01-.369.099l-4.313.222a.821.821 0 01-.468-.099.289.289 0 01-.18-.271l.377-2.465a.322.322 0 01.181-.213.931.931 0 01.467-.099.82.82 0 01.394.115.269.269 0 01.108.106.275.275 0 01.031.149l-.336 2.087 3.624-.189c.32 0 .599.115.656.304a.292.292 0 01-.172.254zM228.472 158.204a.821.821 0 01-.468.099c-.328 0-.557-.173-.533-.37l.32-2.087-3.625.189c-.328 0-.606-.123-.639-.304a.317.317 0 01.18-.279.815.815 0 01.361-.098l4.322-.23a.872.872 0 01.475.098c.123.074.189.173.172.271l-.385 2.465a.381.381 0 01-.18.246zM226.332 161.778a.649.649 0 01-.139.058.968.968 0 01-.435 0 .59.59 0 01-.344-.165l-5.47-6.038c-.131-.132-.09-.296.09-.403l.14-.065a.963.963 0 01.459 0 .56.56 0 01.311.164l5.486 6.038c.123.148.091.304-.098.411z" fill="#fff"/><path d="M245.552 158.229a1.255 1.255 0 01-.639 1.101l-20.362 11.781a2.54 2.54 0 01-1.279.345v6.811c.45 0 .891-.119 1.279-.345l20.362-11.781a1.278 1.278 0 00.639-1.101v-6.811z" fill="url(#prefix__paint49_linear)"/><path d="M222.001 171.111l-20.37-11.781a1.274 1.274 0 01-.631-1.101v6.778a1.262 1.262 0 00.631 1.101l20.37 11.781c.386.225.824.344 1.271.345v-6.811a2.529 2.529 0 01-1.271-.312z" fill="url(#prefix__paint50_linear)"/><path d="M245.479 165.08a1.256 1.256 0 01-.64 1.101l-20.296 11.74a2.501 2.501 0 01-1.271.345v10.96c.447.005.886-.111 1.271-.337l20.296-11.74a1.283 1.283 0 00.64-1.101V165.08z" fill="url(#prefix__paint51_linear)"/><path d="M222.001 177.921l-20.296-11.74a1.243 1.243 0 01-.631-1.101v10.968a1.273 1.273 0 00.631 1.101l20.296 11.74c.387.223.825.339 1.271.337v-10.96a2.534 2.534 0 01-1.271-.345z" fill="url(#prefix__paint52_linear)"/><path d="M330.002 178.345l-20.361 11.773a1.268 1.268 0 00-.639 1.105 1.276 1.276 0 00.639 1.105l20.361 11.756a2.572 2.572 0 002.551 0l20.369-11.748a1.28 1.28 0 00.462-1.742 1.28 1.28 0 00-.462-.468l-20.369-11.781a2.535 2.535 0 00-2.551 0z" fill="url(#prefix__paint53_linear)"/><path d="M330.839 194.324a.728.728 0 01-.361.099l-4.314.23a.881.881 0 01-.475-.099.276.276 0 01-.172-.279l.377-2.465a.317.317 0 01.172-.205.972.972 0 01.476-.107c.14.002.277.045.393.123a.246.246 0 01.132.247l-.329 2.087 3.617-.181c.32 0 .607.115.656.296a.29.29 0 01-.172.254zM336.479 191.202a.857.857 0 01-.475.107c-.32 0-.55-.181-.525-.37l.312-2.086-3.625.18c-.328 0-.607-.115-.631-.304-.025-.189.049-.197.172-.271a.812.812 0 01.361-.098l4.33-.239a.83.83 0 01.467.107.296.296 0 01.18.271l-.393 2.465a.385.385 0 01-.173.238zM334.339 194.776a.521.521 0 01-.139.066 1.004 1.004 0 01-.443 0 .636.636 0 01-.344-.173l-5.47-6.038c-.123-.132-.09-.288.098-.394a.368.368 0 01.14-.066.93.93 0 01.451 0 .45.45 0 01.311.164l5.495 6.039c.123.139.082.295-.099.402z" fill="#fff"/><path d="M353.552 191.227a1.272 1.272 0 01-.631 1.109l-20.37 11.748c-.388.22-.825.336-1.271.337v6.811a2.608 2.608 0 001.271-.337l20.37-11.74a1.28 1.28 0 00.631-1.109v-6.819z" fill="url(#prefix__paint54_linear)"/><path d="M330.001 204.084l-20.361-11.748a1.264 1.264 0 01-.64-1.109v6.811a1.276 1.276 0 00.64 1.109l20.361 11.781c.391.22.831.336 1.279.337v-6.811a2.611 2.611 0 01-1.279-.37z" fill="url(#prefix__paint55_linear)"/><path opacity=".9" d="M281.408 196.664l-20.874-12.055a2.247 2.247 0 00-2.24 0l-20.874 12.055a1.085 1.085 0 000 1.883l20.874 12.055a2.255 2.255 0 002.24 0l20.874-12.047a1.091 1.091 0 00.551-.946 1.085 1.085 0 00-.551-.945z" fill="url(#prefix__paint56_linear)"/><path d="M288.461 220.632c.242.139.498.253.763.34.272.076.55.134.829.175.082.011.16.036.233.074a.175.175 0 01.083.216l-.158.465a.285.285 0 01-.133.149.714.714 0 01-.34.075c-.216 0-.431 0-.63-.05s-.424-.066-.689-.125c.108.755-.29 1.386-1.186 1.909a4.268 4.268 0 01-2.083.564 3.974 3.974 0 01-2.032-.523c-.648-.373-.946-.829-.872-1.311.075-.481.49-.97 1.27-1.418.265-.15.556-.291.829-.432.274-.141.672-.274 1.046-.415l-.556-.323a3.238 3.238 0 00-1.576-.498 3.466 3.466 0 00-1.602.514c-.26.152-.503.333-.721.54a4.33 4.33 0 00-.565.622l-.166.216-.099.083a.385.385 0 01-.398-.05l-.374-.216c-.124-.066-.199-.124-.215-.182a.3.3 0 01.049-.216c.172-.279.382-.533.623-.755a4.88 4.88 0 011.045-.772 5.324 5.324 0 012.622-.829 4.92 4.92 0 012.489.721l2.489 1.427.025.025zm-1.934 2.489c.246-.137.465-.316.648-.531a.902.902 0 00.232-.697.734.734 0 00-.224-.439 3.185 3.185 0 00-.589-.423l-.324-.183c-.274.091-.556.207-.829.324a7.262 7.262 0 00-.764.39c-.514.298-.829.572-.829.829s.116.498.497.722c.331.199.71.302 1.096.299a2.033 2.033 0 001.086-.324v.033zm6.953-3.061a.758.758 0 01-.365.124 1.388 1.388 0 01-.456-.083l-7.7-2.372a1.821 1.821 0 01-.373-.133c-.124-.075-.133-.15 0-.216l.747-.431a.822.822 0 01.373-.133c.156.006.31.036.456.091l6.331 2.174-3.858-3.609c-.116-.108-.166-.191-.158-.249.008-.058.091-.141.232-.224l.614-.357a.756.756 0 01.382-.124.952.952 0 01.44.083l6.313 2.207-3.791-3.717c-.108-.116-.158-.199-.15-.257.009-.058.083-.141.225-.216l.705-.415a.373.373 0 01.381 0l.108.083.141.141 4.066 4.472c.099.116.149.199.132.265a.427.427 0 01-.215.208l-.656.381a.87.87 0 01-.381.133 1.316 1.316 0 01-.448-.091l-6.107-2.165 3.742 3.517c.108.116.166.199.158.266-.009.066-.092.141-.233.215l-.655.432zm10.022-5.542a8.277 8.277 0 01-1.319.597 7.416 7.416 0 01-1.178.332 1.396 1.396 0 01-.456 0 .944.944 0 01-.258-.091l-.39-.233c-.157-.091-.174-.166-.058-.232l.158-.066.265-.067c.378-.085.75-.196 1.112-.331.344-.131.677-.29.996-.473.353-.168.644-.444.829-.789.092-.248 0-.464-.323-.647a1.525 1.525 0 00-.739-.19 4.233 4.233 0 00-1.169.215l-1.452.44a5.383 5.383 0 01-2 .257 3.683 3.683 0 01-1.493-.415 1.574 1.574 0 01-.639-.614.924.924 0 01-.075-.68c.068-.261.206-.5.399-.689.244-.249.524-.461.829-.63.166-.091.349-.191.54-.274.19-.083.39-.166.58-.241l.556-.174c.152-.049.307-.085.465-.108a1.92 1.92 0 01.415 0c.115.01.226.047.323.108l.357.208c.158.091.183.174.066.24-.122.054-.25.093-.381.116a5.871 5.871 0 00-1.759.672 1.798 1.798 0 00-.83.714c-.091.216 0 .415.324.597.236.128.503.191.771.183.429-.029.852-.11 1.261-.241l1.427-.431a5.175 5.175 0 011.917-.257c.498.028.984.17 1.419.414.281.142.519.357.688.623.12.217.161.469.116.713a1.517 1.517 0 01-.423.73c-.257.267-.55.496-.871.681v.033zM308.654 215.787c-.655 2.489-3.319 5.202-6.463 7.011a33.833 33.833 0 01-15.68 4.057c-.448 0-.531-.274-.075-.34a42.405 42.405 0 0014.378-4.821 21.808 21.808 0 006.894-6.031c.224-.349 1.054-.291.946.124zm-.149-1.286c-.73-.058-2.315 1.112-3.037 1.659-.216.158-.464.058-.406-.157.431-1.411 3.078-2.605 3.692-2.572.614.033 2.621 1.601 2.414 3.028a.255.255 0 01-.199.205.261.261 0 01-.149-.012.26.26 0 01-.117-.093c-.448-.639-1.468-2.016-2.198-2.058z" fill="#000"/><path opacity=".5" d="M293.115 59.439l-68.944 39.823a.568.568 0 00-.283.494.571.571 0 00.283.494l70.437 40.653a1.49 1.49 0 001.485 0l70.438-40.653a.579.579 0 00.282-.494.578.578 0 00-.282-.494L297.587 59.44a4.48 4.48 0 00-4.472 0z" fill="#E5D4FF"/><path d="M294.233 25.755l-81.073 46.8a1.297 1.297 0 00-.477 1.78c.114.199.278.363.477.477l81.065 46.81a2.611 2.611 0 002.605 0l81.074-46.81a1.303 1.303 0 000-2.248L296.83 25.755a2.596 2.596 0 00-2.597 0z" fill="url(#prefix__paint57_linear)"/><path d="M378.552 73.684a1.286 1.286 0 01-.647 1.128l-81.074 46.809a2.601 2.601 0 01-1.303.349v6.936c.458 0 .907-.12 1.303-.349l81.074-46.8a1.311 1.311 0 00.647-1.129v-6.944z" fill="url(#prefix__paint58_linear)"/><path d="M294.226 121.621L213.16 74.812a1.296 1.296 0 01-.655-1.128v6.944a1.3 1.3 0 00.655 1.129l81.066 46.8a2.62 2.62 0 001.302.349v-6.936a2.62 2.62 0 01-1.302-.349z" fill="url(#prefix__paint59_linear)"/><path d="M292.816 101.486a3.033 3.033 0 01-1.485-.374l-2.589-1.493a1.395 1.395 0 01-.83-1.161 1.166 1.166 0 01.639-1.004l11.889-6.87a2.954 2.954 0 012.697.091l2.629 1.519a1.401 1.401 0 01.83 1.17 1.16 1.16 0 01-.639.995l-11.889 6.87a2.49 2.49 0 01-1.252.257zm8.835-10.147a1.452 1.452 0 00-.68.141l-11.889 6.87c-.091.05-.108.091-.108.091.066.1.158.18.266.232l2.622 1.519a1.908 1.908 0 001.659.091l11.889-6.87c.091-.05.108-.091.108-.091a.593.593 0 00-.266-.232l-2.622-1.519a1.998 1.998 0 00-.979-.207v-.025z" fill="#000"/><path d="M291.919 98.972c.481 0 .871-.227.871-.506 0-.28-.39-.506-.871-.506s-.871.226-.871.506.39.506.871.506zM301.485 93.297l-2.896 1.66a.97.97 0 01-.829 0c-.258-.15-.283-.374-.067-.498l2.896-1.66a.916.916 0 01.829 0c.257.15.282.39.067.498zM295.055 103.211a.53.53 0 01-.265-.995l6.521-3.767-1.51-.83a.541.541 0 01-.191-.73.527.527 0 01.533-.26c.07.01.137.034.197.07l2.298 1.327a.518.518 0 01.266.456.53.53 0 01-.266.465l-7.317 4.198a.506.506 0 01-.266.066z" fill="#000"/><path d="M302.373 98.997a.537.537 0 01-.514-.676.532.532 0 01.248-.32l7.318-4.223a.523.523 0 01.722.191.538.538 0 01-.191.73l-7.318 4.223a.512.512 0 01-.265.075zM285.747 97.429a3.039 3.039 0 01-1.485-.373l-2.63-1.51a1.424 1.424 0 01-.788-1.17 1.166 1.166 0 01.639-1.004l11.889-6.87a2.952 2.952 0 012.696.092l2.622 1.518a1.396 1.396 0 01.83 1.17 1.16 1.16 0 01-.639.995l-11.889 6.87c-.383.2-.812.298-1.245.282zm8.803-10.147a1.43 1.43 0 00-.68.141l-11.889 6.87c-.092.05-.108.091-.108.091a.59.59 0 00.265.232l2.622 1.519a1.893 1.893 0 001.659.09l11.898-6.869c.091-.05.107-.09.107-.09a.656.656 0 00-.265-.233l-2.622-1.518a2.024 2.024 0 00-.987-.233z" fill="#000"/><path d="M284.851 94.89c.481 0 .871-.227.871-.506 0-.28-.39-.506-.871-.506s-.871.227-.871.506c0 .28.39.506.871.506zM294.416 89.215l-2.895 1.66a.97.97 0 01-.83 0c-.257-.15-.282-.374-.066-.498l2.887-1.66a.937.937 0 01.83 0c.265.15.29.374.074.498z" fill="#000"/><path opacity=".9" d="M239.443 73.618l20.874 12.054a2.249 2.249 0 002.24 0l20.874-12.054a1.082 1.082 0 00.398-1.486 1.078 1.078 0 00-.398-.398l-20.874-12.046a2.206 2.206 0 00-2.24 0l-20.874 12.046a1.082 1.082 0 00-.398 1.486c.095.165.232.302.398.398z" fill="url(#prefix__paint60_linear)"/><path opacity=".9" d="M273.544 53.237l20.874 12.055a2.249 2.249 0 002.24 0l20.874-12.055a1.087 1.087 0 000-1.883l-20.874-12.055a2.249 2.249 0 00-2.24 0l-20.874 12.055a1.085 1.085 0 00-.398 1.485c.095.166.233.303.398.398z" fill="url(#prefix__paint61_linear)"/><path d="M294.002 22.338L273.633 34.12a1.276 1.276 0 00-.631 1.105 1.28 1.28 0 00.631 1.105l20.369 11.78a2.53 2.53 0 002.551 0l20.361-11.78a1.273 1.273 0 000-2.21l-20.361-11.781a2.574 2.574 0 00-2.551 0z" fill="url(#prefix__paint62_linear)"/><path d="M294.838 38.326a.817.817 0 01-.369.099l-4.313.222a.822.822 0 01-.468-.099.285.285 0 01-.18-.271l.377-2.465a.325.325 0 01.181-.213.93.93 0 01.467-.099.822.822 0 01.394.115.268.268 0 01.108.106.273.273 0 01.031.149l-.336 2.087 3.624-.19c.32 0 .599.116.656.305a.293.293 0 01-.172.254zM300.472 35.204a.821.821 0 01-.468.099c-.328 0-.557-.173-.533-.37l.32-2.087-3.625.19c-.328 0-.606-.124-.639-.305a.319.319 0 01.18-.28.821.821 0 01.361-.098l4.322-.23a.883.883 0 01.475.1c.123.073.189.172.172.27l-.385 2.465a.392.392 0 01-.18.246zM298.332 38.778a.609.609 0 01-.139.058.96.96 0 01-.435 0 .587.587 0 01-.344-.165l-5.47-6.038c-.131-.132-.09-.296.09-.403l.14-.066a.965.965 0 01.459 0c.118.02.228.078.311.165l5.486 6.038c.123.148.091.304-.098.411z" fill="#fff"/><path d="M317.552 35.229a1.252 1.252 0 01-.639 1.1l-20.362 11.782a2.534 2.534 0 01-1.279.345v6.81c.45.001.891-.118 1.279-.344l20.362-11.781a1.275 1.275 0 00.639-1.101v-6.811z" fill="url(#prefix__paint63_linear)"/><path d="M294.001 48.111l-20.37-11.781a1.274 1.274 0 01-.631-1.101v6.778a1.265 1.265 0 00.631 1.1l20.37 11.782a2.53 2.53 0 001.271.345v-6.81a2.529 2.529 0 01-1.271-.313z" fill="url(#prefix__paint64_linear)"/><path d="M317.479 42.08a1.253 1.253 0 01-.64 1.101l-20.296 11.74a2.503 2.503 0 01-1.271.345v10.96c.447.005.886-.111 1.271-.337l20.296-11.74a1.28 1.28 0 00.64-1.101V42.08z" fill="url(#prefix__paint65_linear)"/><path d="M294.001 54.921l-20.296-11.74a1.247 1.247 0 01-.631-1.1v10.967a1.274 1.274 0 00.631 1.1l20.296 11.74c.387.224.825.34 1.271.338v-10.96c-.447 0-.885-.12-1.271-.345z" fill="url(#prefix__paint66_linear)"/><path opacity=".9" d="M309.544 73.237l20.874 12.055a2.249 2.249 0 002.24 0l20.874-12.055a1.087 1.087 0 000-1.883l-20.874-12.055a2.249 2.249 0 00-2.24 0l-20.874 12.055a1.085 1.085 0 00-.398 1.485c.095.165.233.303.398.398z" fill="url(#prefix__paint67_linear)"/><defs><linearGradient id="prefix__paint0_linear" x1="8.474" y1="295.334" x2="293.567" y2="295.334" gradientUnits="userSpaceOnUse"><stop stop-color="#A554F3"/><stop offset=".05" stop-color="#A052EE"/><stop offset=".47" stop-color="#7840CB"/><stop offset=".8" stop-color="#6035B6"/><stop offset="1" stop-color="#5731AE"/></linearGradient><linearGradient id="prefix__paint1_linear" x1="114171" y1="48453.5" x2="204540" y2="48453.5" gradientUnits="userSpaceOnUse"><stop stop-color="#FAFAFA"/><stop offset=".68" stop-color="#FAFAFA"/><stop offset="1" stop-color="#EFEFF0"/></linearGradient><linearGradient id="prefix__paint2_linear" x1="98828.8" y1="39839.4" x2="142706" y2="39839.4" gradientUnits="userSpaceOnUse"><stop stop-color="#C0C0C2"/><stop offset="1" stop-color="#DBDBDC"/></linearGradient><linearGradient id="prefix__paint3_linear" x1="34841.3" y1="20969.6" x2="43149.4" y2="20969.6" gradientUnits="userSpaceOnUse"><stop offset=".01" stop-color="#EFEFF0"/><stop offset=".48" stop-color="#E7E7E8"/><stop offset="1" stop-color="#D8D8D9"/></linearGradient><linearGradient id="prefix__paint4_linear" x1="524.353" y1="197.596" x2="569.438" y2="197.596" gradientUnits="userSpaceOnUse"><stop stop-color="#A554F3" stop-opacity=".33"/><stop offset="1" stop-color="#8040C9" stop-opacity=".49"/></linearGradient><linearGradient id="prefix__paint5_linear" x1="417.201" y1="211.21" x2="461.754" y2="211.21" gradientUnits="userSpaceOnUse"><stop offset=".01" stop-color="#69696F"/><stop offset="1" stop-color="#111213"/></linearGradient><linearGradient id="prefix__paint6_linear" x1="12905.3" y1="6123.69" x2="13510.3" y2="6123.69" gradientUnits="userSpaceOnUse"><stop offset=".01" stop-color="#0F1014"/><stop offset="1" stop-color="#22252B"/></linearGradient><linearGradient id="prefix__paint7_linear" x1="417.019" y1="215.21" x2="439.485" y2="221.229" gradientUnits="userSpaceOnUse"><stop offset=".01" stop-color="#626262"/><stop offset="1" stop-color="#252629"/></linearGradient><linearGradient id="prefix__paint8_linear" x1="451.993" y1="197.294" x2="497.078" y2="197.294" gradientUnits="userSpaceOnUse"><stop stop-color="#A554F3" stop-opacity=".33"/><stop offset="1" stop-color="#8040C9" stop-opacity=".49"/></linearGradient><linearGradient id="prefix__paint9_linear" x1="487.993" y1="218.294" x2="533.078" y2="218.294" gradientUnits="userSpaceOnUse"><stop stop-color="#A554F3" stop-opacity=".33"/><stop offset="1" stop-color="#8040C9" stop-opacity=".49"/></linearGradient><linearGradient id="prefix__paint10_linear" x1="488.001" y1="201.227" x2="532.554" y2="201.227" gradientUnits="userSpaceOnUse"><stop offset=".01" stop-color="#69696F"/><stop offset="1" stop-color="#111213"/></linearGradient><linearGradient id="prefix__paint11_linear" x1="7176.51" y1="4848.79" x2="7781.87" y2="4848.79" gradientUnits="userSpaceOnUse"><stop offset=".01" stop-color="#0F1014"/><stop offset="1" stop-color="#22252B"/></linearGradient><linearGradient id="prefix__paint12_linear" x1="487.819" y1="205.205" x2="510.273" y2="211.229" gradientUnits="userSpaceOnUse"><stop offset=".01" stop-color="#626262"/><stop offset="1" stop-color="#252629"/></linearGradient><linearGradient id="prefix__paint13_linear" x1="516.244" y1="217.364" x2="526.522" y2="237.069" gradientUnits="userSpaceOnUse"><stop offset=".02" stop-color="#8B49F2" stop-opacity=".4"/><stop offset=".13" stop-color="#B184F8" stop-opacity=".4"/><stop offset=".24" stop-color="#CEB1FC" stop-opacity=".4"/><stop offset=".36" stop-color="#DFCBFE" stop-opacity=".4"/><stop offset=".657" stop-color="#E5D4FF" stop-opacity=".4"/><stop offset="1" stop-color="#E5D4FF" stop-opacity="0"/></linearGradient><linearGradient id="prefix__paint14_linear" x1="499.845" y1="213.667" x2="492.303" y2="229.325" gradientUnits="userSpaceOnUse"><stop offset=".02" stop-color="#8B49F2" stop-opacity=".4"/><stop offset=".13" stop-color="#B184F8" stop-opacity=".4"/><stop offset=".24" stop-color="#CEB1FC" stop-opacity=".4"/><stop offset=".36" stop-color="#DFCBFE" stop-opacity=".4"/><stop offset=".5" stop-color="#E5D4FF" stop-opacity=".4"/><stop offset=".91" stop-color="#E5D4FF" stop-opacity="0"/></linearGradient><linearGradient id="prefix__paint15_linear" x1="451.993" y1="239.294" x2="497.078" y2="239.294" gradientUnits="userSpaceOnUse"><stop stop-color="#A554F3" stop-opacity=".33"/><stop offset="1" stop-color="#8040C9" stop-opacity=".49"/></linearGradient><linearGradient id="prefix__paint16_linear" x1="416.993" y1="260.294" x2="462.078" y2="260.294" gradientUnits="userSpaceOnUse"><stop stop-color="#A554F3" stop-opacity=".33"/><stop offset="1" stop-color="#8040C9" stop-opacity=".49"/></linearGradient><linearGradient id="prefix__paint17_linear" x1="487.993" y1="176.294" x2="533.078" y2="176.294" gradientUnits="userSpaceOnUse"><stop stop-color="#A554F3" stop-opacity=".33"/><stop offset="1" stop-color="#8040C9" stop-opacity=".49"/></linearGradient><linearGradient id="prefix__paint18_linear" x1="382.14" y1="238.879" x2="427.225" y2="238.879" gradientUnits="userSpaceOnUse"><stop stop-color="#A554F3" stop-opacity=".33"/><stop offset="1" stop-color="#8040C9" stop-opacity=".49"/></linearGradient><linearGradient id="prefix__paint19_linear" x1="344.993" y1="260.295" x2="390.086" y2="260.295" gradientUnits="userSpaceOnUse"><stop stop-color="#A554F3" stop-opacity=".33"/><stop offset="1" stop-color="#8040C9" stop-opacity=".49"/></linearGradient><linearGradient id="prefix__paint20_linear" x1="345.001" y1="243.227" x2="389.554" y2="243.227" gradientUnits="userSpaceOnUse"><stop offset=".01" stop-color="#69696F"/><stop offset="1" stop-color="#111213"/></linearGradient><linearGradient id="prefix__paint21_linear" x1="7033.51" y1="4890.79" x2="7638.87" y2="4890.79" gradientUnits="userSpaceOnUse"><stop offset=".01" stop-color="#0F1014"/><stop offset="1" stop-color="#22252B"/></linearGradient><linearGradient id="prefix__paint22_linear" x1="344.819" y1="247.205" x2="367.273" y2="253.229" gradientUnits="userSpaceOnUse"><stop offset=".01" stop-color="#626262"/><stop offset="1" stop-color="#252629"/></linearGradient><linearGradient id="prefix__paint23_linear" x1="373.244" y1="259.364" x2="383.522" y2="279.069" gradientUnits="userSpaceOnUse"><stop offset=".02" stop-color="#8B49F2" stop-opacity=".4"/><stop offset=".13" stop-color="#B184F8" stop-opacity=".4"/><stop offset=".24" stop-color="#CEB1FC" stop-opacity=".4"/><stop offset=".36" stop-color="#DFCBFE" stop-opacity=".4"/><stop offset=".657" stop-color="#E5D4FF" stop-opacity=".4"/><stop offset="1" stop-color="#E5D4FF" stop-opacity="0"/></linearGradient><linearGradient id="prefix__paint24_linear" x1="356.845" y1="255.667" x2="349.303" y2="271.325" gradientUnits="userSpaceOnUse"><stop offset=".02" stop-color="#8B49F2" stop-opacity=".4"/><stop offset=".13" stop-color="#B184F8" stop-opacity=".4"/><stop offset=".24" stop-color="#CEB1FC" stop-opacity=".4"/><stop offset=".36" stop-color="#DFCBFE" stop-opacity=".4"/><stop offset=".5" stop-color="#E5D4FF" stop-opacity=".4"/><stop offset=".91" stop-color="#E5D4FF" stop-opacity="0"/></linearGradient><linearGradient id="prefix__paint25_linear" x1="320.178" y1="135.908" x2="486.217" y2="135.908" gradientUnits="userSpaceOnUse"><stop stop-color="#FAFAFA"/><stop offset=".68" stop-color="#FAFAFA"/><stop offset="1" stop-color="#EFEFF0"/></linearGradient><linearGradient id="prefix__paint26_linear" x1="403.193" y1="163.519" x2="486.216" y2="163.519" gradientUnits="userSpaceOnUse"><stop stop-color="#C0C0C2"/><stop offset="1" stop-color="#DBDBDC"/></linearGradient><linearGradient id="prefix__paint27_linear" x1="320.178" y1="163.519" x2="403.193" y2="163.519" gradientUnits="userSpaceOnUse"><stop offset=".01" stop-color="#EFEFF0"/><stop offset=".48" stop-color="#E7E7E8"/><stop offset="1" stop-color="#D8D8D9"/></linearGradient><linearGradient id="prefix__paint28_linear" x1="416.472" y1="134.559" x2="461.557" y2="134.559" gradientUnits="userSpaceOnUse"><stop stop-color="#A554F3" stop-opacity=".33"/><stop offset="1" stop-color="#8040C9" stop-opacity=".49"/></linearGradient><linearGradient id="prefix__paint29_linear" x1="344.831" y1="135.016" x2="389.917" y2="135.016" gradientUnits="userSpaceOnUse"><stop stop-color="#A554F3" stop-opacity=".33"/><stop offset="1" stop-color="#8040C9" stop-opacity=".49"/></linearGradient><linearGradient id="prefix__paint30_linear" x1="379.993" y1="113.294" x2="425.078" y2="113.294" gradientUnits="userSpaceOnUse"><stop stop-color="#A554F3" stop-opacity=".33"/><stop offset="1" stop-color="#8040C9" stop-opacity=".49"/></linearGradient><linearGradient id="prefix__paint31_linear" x1="380.001" y1="96.227" x2="424.554" y2="96.227" gradientUnits="userSpaceOnUse"><stop offset=".01" stop-color="#69696F"/><stop offset="1" stop-color="#111213"/></linearGradient><linearGradient id="prefix__paint32_linear" x1="7068.51" y1="4743.79" x2="7673.87" y2="4743.79" gradientUnits="userSpaceOnUse"><stop offset=".01" stop-color="#0F1014"/><stop offset="1" stop-color="#22252B"/></linearGradient><linearGradient id="prefix__paint33_linear" x1="379.819" y1="100.205" x2="402.273" y2="106.229" gradientUnits="userSpaceOnUse"><stop offset=".01" stop-color="#626262"/><stop offset="1" stop-color="#252629"/></linearGradient><linearGradient id="prefix__paint34_linear" x1="408.244" y1="112.364" x2="418.522" y2="132.069" gradientUnits="userSpaceOnUse"><stop offset=".02" stop-color="#8B49F2" stop-opacity=".4"/><stop offset=".13" stop-color="#B184F8" stop-opacity=".4"/><stop offset=".24" stop-color="#CEB1FC" stop-opacity=".4"/><stop offset=".36" stop-color="#DFCBFE" stop-opacity=".4"/><stop offset=".657" stop-color="#E5D4FF" stop-opacity=".4"/><stop offset="1" stop-color="#E5D4FF" stop-opacity="0"/></linearGradient><linearGradient id="prefix__paint35_linear" x1="391.845" y1="108.667" x2="384.303" y2="124.325" gradientUnits="userSpaceOnUse"><stop offset=".02" stop-color="#8B49F2" stop-opacity=".4"/><stop offset=".13" stop-color="#B184F8" stop-opacity=".4"/><stop offset=".24" stop-color="#CEB1FC" stop-opacity=".4"/><stop offset=".36" stop-color="#DFCBFE" stop-opacity=".4"/><stop offset=".5" stop-color="#E5D4FF" stop-opacity=".4"/><stop offset=".91" stop-color="#E5D4FF" stop-opacity="0"/></linearGradient><linearGradient id="prefix__paint36_linear" x1="42940.3" y1="36585.2" x2="132973" y2="36585.2" gradientUnits="userSpaceOnUse"><stop stop-color="#FAFAFA"/><stop offset=".68" stop-color="#FAFAFA"/><stop offset="1" stop-color="#EFEFF0"/></linearGradient><linearGradient id="prefix__paint37_linear" x1="29929.2" y1="31019.9" x2="73572.1" y2="31019.9" gradientUnits="userSpaceOnUse"><stop offset=".01" stop-color="#EFEFF0"/><stop offset=".48" stop-color="#E7E7E8"/><stop offset="1" stop-color="#D8D8D9"/></linearGradient><linearGradient id="prefix__paint38_linear" x1="32349.2" y1="16807.2" x2="40657.3" y2="16807.2" gradientUnits="userSpaceOnUse"><stop stop-color="#C0C0C2"/><stop offset="1" stop-color="#DBDBDC"/></linearGradient><linearGradient id="prefix__paint39_linear" x1="165.001" y1="107.21" x2="209.554" y2="107.21" gradientUnits="userSpaceOnUse"><stop offset=".01" stop-color="#69696F"/><stop offset="1" stop-color="#111213"/></linearGradient><linearGradient id="prefix__paint40_linear" x1="12653.1" y1="6019.69" x2="13258.1" y2="6019.69" gradientUnits="userSpaceOnUse"><stop offset=".01" stop-color="#0F1014"/><stop offset="1" stop-color="#22252B"/></linearGradient><linearGradient id="prefix__paint41_linear" x1="164.819" y1="111.21" x2="187.285" y2="117.229" gradientUnits="userSpaceOnUse"><stop offset=".01" stop-color="#626262"/><stop offset="1" stop-color="#252629"/></linearGradient><linearGradient id="prefix__paint42_linear" x1="128.993" y1="135.286" x2="174.064" y2="135.286" gradientUnits="userSpaceOnUse"><stop stop-color="#A554F3" stop-opacity=".33"/><stop offset="1" stop-color="#8040C9" stop-opacity=".49"/></linearGradient><linearGradient id="prefix__paint43_linear" x1="272.603" y1="176.964" x2="317.688" y2="176.964" gradientUnits="userSpaceOnUse"><stop stop-color="#A554F3" stop-opacity=".33"/><stop offset="1" stop-color="#8040C9" stop-opacity=".49"/></linearGradient><linearGradient id="prefix__paint44_linear" x1="164.814" y1="155.964" x2="209.914" y2="155.964" gradientUnits="userSpaceOnUse"><stop stop-color="#A554F3" stop-opacity=".33"/><stop offset="1" stop-color="#8040C9" stop-opacity=".49"/></linearGradient><linearGradient id="prefix__paint45_linear" x1="199.993" y1="135.295" x2="245.093" y2="135.295" gradientUnits="userSpaceOnUse"><stop stop-color="#A554F3" stop-opacity=".33"/><stop offset="1" stop-color="#8040C9" stop-opacity=".49"/></linearGradient><linearGradient id="prefix__paint46_linear" x1="235.993" y1="156.295" x2="281.093" y2="156.295" gradientUnits="userSpaceOnUse"><stop stop-color="#A554F3" stop-opacity=".33"/><stop offset="1" stop-color="#8040C9" stop-opacity=".49"/></linearGradient><linearGradient id="prefix__paint47_linear" x1="200.993" y1="176.295" x2="246.093" y2="176.295" gradientUnits="userSpaceOnUse"><stop stop-color="#A554F3" stop-opacity=".33"/><stop offset="1" stop-color="#8040C9" stop-opacity=".49"/></linearGradient><linearGradient id="prefix__paint48_linear" x1="201.001" y1="158.227" x2="245.554" y2="158.227" gradientUnits="userSpaceOnUse"><stop offset=".01" stop-color="#69696F"/><stop offset="1" stop-color="#111213"/></linearGradient><linearGradient id="prefix__paint49_linear" x1="6889.51" y1="4805.79" x2="7494.87" y2="4805.79" gradientUnits="userSpaceOnUse"><stop offset=".01" stop-color="#0F1014"/><stop offset="1" stop-color="#22252B"/></linearGradient><linearGradient id="prefix__paint50_linear" x1="200.819" y1="162.205" x2="223.273" y2="168.229" gradientUnits="userSpaceOnUse"><stop offset=".01" stop-color="#626262"/><stop offset="1" stop-color="#252629"/></linearGradient><linearGradient id="prefix__paint51_linear" x1="229.244" y1="174.364" x2="239.522" y2="194.069" gradientUnits="userSpaceOnUse"><stop offset=".02" stop-color="#8B49F2" stop-opacity=".4"/><stop offset=".13" stop-color="#B184F8" stop-opacity=".4"/><stop offset=".24" stop-color="#CEB1FC" stop-opacity=".4"/><stop offset=".36" stop-color="#DFCBFE" stop-opacity=".4"/><stop offset=".657" stop-color="#E5D4FF" stop-opacity=".4"/><stop offset="1" stop-color="#E5D4FF" stop-opacity="0"/></linearGradient><linearGradient id="prefix__paint52_linear" x1="212.845" y1="170.667" x2="205.303" y2="186.325" gradientUnits="userSpaceOnUse"><stop offset=".02" stop-color="#8B49F2" stop-opacity=".4"/><stop offset=".13" stop-color="#B184F8" stop-opacity=".4"/><stop offset=".24" stop-color="#CEB1FC" stop-opacity=".4"/><stop offset=".36" stop-color="#DFCBFE" stop-opacity=".4"/><stop offset=".5" stop-color="#E5D4FF" stop-opacity=".4"/><stop offset=".91" stop-color="#E5D4FF" stop-opacity="0"/></linearGradient><linearGradient id="prefix__paint53_linear" x1="309.001" y1="191.21" x2="353.554" y2="191.21" gradientUnits="userSpaceOnUse"><stop offset=".01" stop-color="#69696F"/><stop offset="1" stop-color="#111213"/></linearGradient><linearGradient id="prefix__paint54_linear" x1="12797.1" y1="6103.69" x2="13402.1" y2="6103.69" gradientUnits="userSpaceOnUse"><stop offset=".01" stop-color="#0F1014"/><stop offset="1" stop-color="#22252B"/></linearGradient><linearGradient id="prefix__paint55_linear" x1="308.819" y1="195.21" x2="331.285" y2="201.229" gradientUnits="userSpaceOnUse"><stop offset=".01" stop-color="#626262"/><stop offset="1" stop-color="#252629"/></linearGradient><linearGradient id="prefix__paint56_linear" x1="236.868" y1="197.605" x2="281.961" y2="197.605" gradientUnits="userSpaceOnUse"><stop stop-color="#A554F3" stop-opacity=".33"/><stop offset="1" stop-color="#8040C9" stop-opacity=".49"/></linearGradient><linearGradient id="prefix__paint57_linear" x1="47718.4" y1="11370.6" x2="80949.8" y2="11370.6" gradientUnits="userSpaceOnUse"><stop stop-color="#FAFAFA"/><stop offset=".68" stop-color="#FAFAFA"/><stop offset="1" stop-color="#EFEFF0"/></linearGradient><linearGradient id="prefix__paint58_linear" x1="32357.5" y1="8399.47" x2="40665.7" y2="8399.47" gradientUnits="userSpaceOnUse"><stop stop-color="#C0C0C2"/><stop offset="1" stop-color="#DBDBDC"/></linearGradient><linearGradient id="prefix__paint59_linear" x1="23966.3" y1="8399.47" x2="32274.5" y2="8399.47" gradientUnits="userSpaceOnUse"><stop offset=".01" stop-color="#EFEFF0"/><stop offset=".48" stop-color="#E7E7E8"/><stop offset="1" stop-color="#D8D8D9"/></linearGradient><linearGradient id="prefix__paint60_linear" x1="238.892" y1="72.676" x2="283.977" y2="72.676" gradientUnits="userSpaceOnUse"><stop stop-color="#A554F3" stop-opacity=".33"/><stop offset="1" stop-color="#8040C9" stop-opacity=".49"/></linearGradient><linearGradient id="prefix__paint61_linear" x1="272.993" y1="52.295" x2="318.078" y2="52.295" gradientUnits="userSpaceOnUse"><stop stop-color="#A554F3" stop-opacity=".33"/><stop offset="1" stop-color="#8040C9" stop-opacity=".49"/></linearGradient><linearGradient id="prefix__paint62_linear" x1="273.001" y1="35.227" x2="317.554" y2="35.227" gradientUnits="userSpaceOnUse"><stop offset=".01" stop-color="#69696F"/><stop offset="1" stop-color="#111213"/></linearGradient><linearGradient id="prefix__paint63_linear" x1="6961.51" y1="4682.79" x2="7566.87" y2="4682.79" gradientUnits="userSpaceOnUse"><stop offset=".01" stop-color="#0F1014"/><stop offset="1" stop-color="#22252B"/></linearGradient><linearGradient id="prefix__paint64_linear" x1="272.819" y1="39.206" x2="295.273" y2="45.229" gradientUnits="userSpaceOnUse"><stop offset=".01" stop-color="#626262"/><stop offset="1" stop-color="#252629"/></linearGradient><linearGradient id="prefix__paint65_linear" x1="301.244" y1="51.364" x2="311.522" y2="71.069" gradientUnits="userSpaceOnUse"><stop offset=".02" stop-color="#8B49F2" stop-opacity=".4"/><stop offset=".13" stop-color="#B184F8" stop-opacity=".4"/><stop offset=".24" stop-color="#CEB1FC" stop-opacity=".4"/><stop offset=".36" stop-color="#DFCBFE" stop-opacity=".4"/><stop offset=".657" stop-color="#E5D4FF" stop-opacity=".4"/><stop offset="1" stop-color="#E5D4FF" stop-opacity="0"/></linearGradient><linearGradient id="prefix__paint66_linear" x1="284.845" y1="47.667" x2="277.303" y2="63.325" gradientUnits="userSpaceOnUse"><stop offset=".02" stop-color="#8B49F2" stop-opacity=".4"/><stop offset=".13" stop-color="#B184F8" stop-opacity=".4"/><stop offset=".24" stop-color="#CEB1FC" stop-opacity=".4"/><stop offset=".36" stop-color="#DFCBFE" stop-opacity=".4"/><stop offset=".5" stop-color="#E5D4FF" stop-opacity=".4"/><stop offset=".91" stop-color="#E5D4FF" stop-opacity="0"/></linearGradient><linearGradient id="prefix__paint67_linear" x1="308.993" y1="72.295" x2="354.078" y2="72.295" gradientUnits="userSpaceOnUse"><stop stop-color="#A554F3" stop-opacity=".33"/><stop offset="1" stop-color="#8040C9" stop-opacity=".49"/></linearGradient></defs></svg>